<?xml version="1.0" encoding="utf-8"?>
<!-- Generator: Adobe Illustrator 23.0.3, SVG Export Plug-In . SVG Version: 6.00 Build 0)  -->
<svg version="1.1" id="레이어_1" xmlns="http://www.w3.org/2000/svg" xmlns:xlink="http://www.w3.org/1999/xlink" x="0px"
	 y="0px" viewBox="0 0 595.3 595.3" style="enable-background:new 0 0 595.3 595.3;" xml:space="preserve">
<style type="text/css">
	.st0{fill:#FFFFFF;stroke:#000000;stroke-width:3;stroke-miterlimit:10;}
	.st1{fill:none;stroke:#000000;stroke-width:3;stroke-miterlimit:10;}
</style>
<path class="st0" d="M485.4,105.7c0,0-68.2-83.8-162.3-96.2l-70.3,1V54L230,61.3V3.4c0,0-121,34.1-163.4,157.2
	c0,0-118.9,97.2-30,310.2l40.3-12.4l12.4,14.5L48,491.4l-8.3-7.2l17.6,32.1c0,0,62.2,81.5,203.7,68.5c1-0.1,2-0.2,3.1-0.3
	c0,0,113.8,29,184.1-22.8l20.7-6.2l6.2-13.4c0,0,90-87.9,98.2-181l10.3-20.7l-58.9-11.4l-2.1-22.8l63.1,11.4l5.2,13.4l4.1-57.9
	C595,273.2,556.7,135.7,485.4,105.7z M312.7,381.8c-36.1,0-83.8-33.7-83.8-71.3s29.2-68.2,65.3-68.2s65.3,30.5,65.3,68.2
	C359.5,348.2,348.7,381.8,312.7,381.8z"/>
<polygon points="301.3,378.8 294.1,328.2 311.7,378.8 "/>
<polygon points="286.1,302.3 288.9,308.5 293.2,309 291,302.3 "/>
<path class="st1" d="M63.5,155.5c0,0-40.3,128.2,15.5,218.2c0,0,122,239.9,350.5,84.8c0,0,191.3-117.9,52.7-357.8
	c0,0-130.3-107.5-285.4-15.5C196.9,85.2,114.2,95.5,63.5,155.5z"/>
<path class="st1" d="M429.6,458.5c76.4-166.4-11.4-272-11.4-272C315.8,60.3,196.9,85.2,196.9,85.2S20.1,204.1,79,373.7
	c0,0,30,173.7,182,205.8C261,579.4,383,559.8,429.6,458.5z"/>
</svg>
